<?xml version="1.0" encoding="utf-8"?>
<!-- Generator: Adobe Illustrator 16.0.0, SVG Export Plug-In . SVG Version: 6.00 Build 0)  -->
<!DOCTYPE svg PUBLIC "-//W3C//DTD SVG 1.1//EN" "http://www.w3.org/Graphics/SVG/1.1/DTD/svg11.dtd">
<svg version="1.1" id="Layer_1" xmlns="http://www.w3.org/2000/svg" xmlns:xlink="http://www.w3.org/1999/xlink" x="0px" y="0px"
	 width="105.941px" height="142.373px" viewBox="0 0 105.941 142.373" enable-background="new 0 0 105.941 142.373"
	 xml:space="preserve">
<path fill-rule="evenodd" clip-rule="evenodd" d="M53.009,141.531c-6.235-5.147-16.894-8.698-26.583-12.684
	C3.145,119.311-3.85,105.527,4.104,83.385c2.425-6.742,5.271-13.72,5.669-21.655c0.452-6.862-2.929-13.72-8.914-20.59
	c4.291-4.634,8.579-9.286,12.867-13.931c14.947,7.239,27.518,3.613,39.241-3.933c11.732,7.546,24.305,11.172,39.25,3.933
	c4.288,4.645,8.578,9.297,12.868,13.931c-5.988,6.87-9.364,13.728-8.913,20.59c0.396,7.935,3.232,14.913,5.665,21.655
	c7.948,22.142,0.971,35.926-22.327,45.462C69.821,132.833,59.242,136.383,53.009,141.531L53.009,141.531z"/>
<g>
	<path fill="#FFFFFF" d="M52.711,141.882c-4.953-4.086-12.951-7.242-20.686-10.294c-1.939-0.766-3.891-1.536-5.776-2.31
		C2.66,119.616-4.304,105.414,3.671,83.231c0.165-0.466,0.79-2.188,0.79-2.188c2.21-6.053,4.496-12.311,4.848-19.333
		C9.728,55.341,6.85,48.713,0.51,41.442l-0.274-0.312l0.286-0.309c3.237-3.497,6.473-7.002,9.709-10.509l3.388-3.671l0.308,0.148
		c5.393,2.612,10.58,3.881,15.857,3.881c7.399,0,14.686-2.475,22.931-7.787l0.253-0.161l0.25,0.161
		c8.256,5.313,15.546,7.787,22.941,7.787c5.278,0,10.465-1.27,15.856-3.881l0.31-0.147l1.518,1.642
		c3.858,4.188,7.719,8.368,11.582,12.537l0.281,0.31l-0.273,0.311c-6.338,7.269-9.215,13.896-8.794,20.257
		c0.348,7.047,2.647,13.34,4.87,19.426l-0.126,0.165l0.164-0.061c0.245,0.668,0.489,1.331,0.728,2
		c7.967,22.188,1,36.39-22.587,46.048c-1.539,0.634-3.12,1.26-4.671,1.874l-1.015,0.402c-7.731,3.063-15.726,6.229-20.695,10.33
		l-0.298,0.256L52.711,141.882z M1.485,41.146c6.314,7.348,9.178,14.093,8.752,20.616c-0.359,7.132-2.662,13.453-4.889,19.566
		L4.544,83.54c-3.959,11.014-4.147,19.878-0.575,27.1c3.553,7.181,10.957,12.997,22.634,17.78c1.717,0.708,3.493,1.407,5.223,2.089
		l0.486,0.191c7.67,3.026,15.6,6.156,20.697,10.235c5.12-4.103,13.07-7.246,20.76-10.286c1.833-0.722,3.732-1.474,5.565-2.229
		c11.684-4.783,19.09-10.599,22.642-17.78c3.566-7.213,3.377-16.078-0.577-27.1l-0.744-2.043c-2.254-6.16-4.586-12.53-4.948-19.743
		c-0.428-6.515,2.435-13.258,8.75-20.606c-3.765-4.066-7.533-8.146-11.297-12.23l-1.054-1.139c-5.4,2.574-10.618,3.825-15.948,3.825
		c-7.504,0-14.877-2.472-23.192-7.778c-8.306,5.306-15.675,7.778-23.184,7.778c-5.327,0-10.545-1.251-15.949-3.825l-4.196,4.545
		C6.921,35.269,4.203,38.214,1.485,41.146z"/>
	<path fill="#FFFFFF" d="M52.967,22.931l0.156,0.101c8.289,5.334,15.607,7.815,23.036,7.815c5.304,0,10.516-1.275,15.933-3.898
		l0.192-0.092l1.431,1.547c3.858,4.188,7.719,8.368,11.582,12.538l0.175,0.193l-0.17,0.193c-6.372,7.309-9.261,13.982-8.838,20.385
		c0.351,7.09,2.665,13.409,4.898,19.523c0.252,0.686,0.502,1.366,0.748,2.055c7.928,22.081,0.992,36.212-22.489,45.827
		c-1.838,0.758-3.737,1.504-5.574,2.232c-7.785,3.084-15.838,6.264-20.852,10.401l-0.186,0.159l-0.183-0.159
		c-4.989-4.116-13.022-7.281-20.791-10.347c-1.884-0.743-3.834-1.514-5.719-2.287c-23.48-9.618-30.414-23.759-22.48-45.827
		c0.258-0.728,0.525-1.455,0.79-2.188c2.217-6.07,4.506-12.35,4.858-19.384c0.421-6.409-2.469-13.083-8.842-20.392l-0.17-0.193
		l0.178-0.193c3.812-4.118,7.623-8.248,11.435-12.377l1.576-1.708l0.191,0.092c5.417,2.624,10.627,3.898,15.933,3.898
		c7.43,0,14.747-2.481,23.025-7.815L52.967,22.931 M29.784,31.428c-5.332,0-10.563-1.261-15.99-3.864l-1.285,1.39
		c-3.752,4.064-7.505,8.14-11.259,12.188c6.356,7.359,9.237,14.102,8.813,20.609c-0.359,7.122-2.664,13.438-4.891,19.551
		c-0.269,0.73-0.532,1.459-0.792,2.177c-3.977,11.063-4.161,19.973-0.567,27.236c3.574,7.223,11.007,13.065,22.724,17.865
		c1.879,0.774,3.829,1.539,5.712,2.281c7.717,3.045,15.691,6.192,20.761,10.297c5.094-4.129,13.092-7.291,20.825-10.348
		c1.834-0.723,3.733-1.475,5.567-2.23c11.725-4.8,19.159-10.64,22.732-17.865c3.59-7.261,3.401-16.169-0.569-27.236
		c-0.246-0.674-0.494-1.363-0.744-2.044c-2.251-6.15-4.578-12.515-4.938-19.691c-0.427-6.5,2.454-13.243,8.811-20.602
		c-3.8-4.104-7.604-8.222-11.403-12.344l-1.142-1.233c-5.424,2.603-10.658,3.864-15.989,3.864c-7.498,0-14.872-2.485-23.192-7.811
		C44.657,28.943,37.284,31.428,29.784,31.428 M52.968,22.515l-0.189,0.12l-0.158,0.101c-8.217,5.295-15.474,7.76-22.837,7.76
		c-5.25,0-10.412-1.264-15.78-3.863l-0.191-0.092l-0.233-0.112l-0.176,0.19l-1.576,1.708l-1.736,1.881
		c-3.232,3.502-6.465,7.004-9.698,10.496l-0.178,0.193L0,41.128l0.209,0.237l0.17,0.193c6.306,7.232,9.17,13.82,8.755,20.137
		c-0.351,7-2.632,13.247-4.838,19.287L4.012,81.77c-0.17,0.469-0.34,0.936-0.506,1.403c-8.013,22.291-1.02,36.56,22.678,46.268
		c1.946,0.798,4.041,1.625,5.724,2.288l0.054,0.021c7.722,3.048,15.707,6.198,20.642,10.27l0.176,0.153l0.228,0.199l0.229-0.197
		l0.186-0.159c4.942-4.079,12.924-7.24,20.642-10.298l0.111-0.044l0.904-0.357c1.541-0.61,3.134-1.241,4.675-1.877
		c23.694-9.701,30.69-23.971,22.685-46.268c-0.24-0.67-0.483-1.333-0.729-2.001l-0.021-0.056l-0.018-0.048
		c-2.219-6.074-4.512-12.354-4.859-19.372c-0.417-6.319,2.446-12.904,8.752-20.138l0.169-0.192l0.207-0.234l-0.21-0.231
		l-0.175-0.193c-3.865-4.173-7.725-8.353-11.583-12.54l-1.431-1.548l-0.175-0.189l-0.233,0.111l-0.192,0.092
		c-5.369,2.601-10.531,3.864-15.782,3.864c-7.36,0-14.62-2.465-22.847-7.759l-0.156-0.101L52.968,22.515L52.968,22.515z
		 M29.784,31.778c7.515,0,14.887-2.462,23.184-7.746c8.307,5.284,15.681,7.746,23.192,7.746c5.318,0,10.523-1.239,15.907-3.787
		l0.967,1.044c3.729,4.045,7.461,8.087,11.191,12.115c-6.277,7.339-9.12,14.086-8.691,20.616c0.363,7.234,2.699,13.616,4.958,19.789
		l0.413,1.134l0.331,0.91c3.937,10.973,4.128,19.793,0.583,26.961c-3.532,7.142-10.908,12.931-22.551,17.696
		c-1.87,0.771-3.852,1.555-5.563,2.229c-7.648,3.023-15.553,6.147-20.696,10.225c-5.121-4.054-13.005-7.164-20.632-10.174
		l-0.485-0.191c-1.724-0.679-3.506-1.381-5.222-2.088c-11.636-4.768-19.01-10.556-22.544-17.697
		c-3.55-7.176-3.359-15.996,0.583-26.963l0.124-0.343c0.22-0.606,0.441-1.218,0.667-1.832c2.244-6.16,4.551-12.493,4.912-19.654
		c0.426-6.531-2.418-13.28-8.693-20.618c2.683-2.894,5.366-5.802,8.048-8.709l3-3.25l1.109-1.2
		C19.262,30.539,24.468,31.778,29.784,31.778L29.784,31.778z"/>
</g>
<polygon fill-rule="evenodd" clip-rule="evenodd" fill="#FFC90D" points="22.918,42.418 23.739,44.728 26.371,44.728 24.241,46.148 
	25.054,48.452 22.918,47.024 20.785,48.452 21.607,46.148 19.468,44.728 22.11,44.728 22.918,42.418 "/>
<polygon fill-rule="evenodd" clip-rule="evenodd" fill="#FFC90D" points="32.319,42.418 33.127,44.728 35.76,44.728 33.629,46.148 
	34.441,48.452 32.319,47.024 30.176,48.452 30.985,46.148 28.857,44.728 31.493,44.728 32.319,42.418 "/>
<polygon fill-rule="evenodd" clip-rule="evenodd" fill="#FFC90D" points="41.704,42.418 42.513,44.728 45.152,44.728 43.012,46.148 
	43.829,48.452 41.704,47.024 39.571,48.452 40.378,46.148 38.25,44.728 40.88,44.728 41.704,42.418 "/>
<polygon fill-rule="evenodd" clip-rule="evenodd" fill="#FFC90D" points="51.09,42.418 51.907,44.728 54.542,44.728 52.411,46.148 
	53.222,48.452 51.09,47.024 48.954,48.452 49.766,46.148 47.639,44.728 50.278,44.728 51.09,42.418 "/>
<polygon fill-rule="evenodd" clip-rule="evenodd" fill="#FFC90D" points="72.172,94.234 74.009,99.416 79.955,99.416 
	75.149,102.621 76.979,107.817 72.172,104.602 67.365,107.817 69.208,102.621 64.396,99.416 70.336,99.416 72.172,94.234 "/>
<polygon fill-rule="evenodd" clip-rule="evenodd" fill="#FFC90D" points="52.967,0 55.607,7.453 64.15,7.453 57.246,12.052 
	59.877,19.524 52.967,14.902 46.053,19.524 48.706,12.052 41.79,7.453 50.327,7.453 52.967,0 "/>
<path fill-rule="evenodd" clip-rule="evenodd" fill="#22201F" d="M10.654,89.009l72.657-51.133L81.716,38.1l-1.587,0.158
	l-1.572,0.105l-1.565,0.026l-1.562-0.005l-1.534-0.088l-1.523-0.135l-1.501-0.19l-1.484-0.244l-1.465-0.292l-1.45-0.341l-1.422-0.4
	l-1.406-0.428l-1.381-0.465l-1.364-0.512l-1.352-0.532l-1.322-0.588l-1.307-0.615l-1.288-0.632l-1.279-0.673l-0.759-0.412
	l-0.762,0.412l-1.277,0.673l-1.279,0.632l-1.307,0.615l-1.33,0.588l-1.336,0.532l-1.373,0.512l-1.386,0.465l-1.4,0.428l-1.426,0.4
	l-1.45,0.341l-1.458,0.292l-1.496,0.244l-1.505,0.19l-1.519,0.135l-1.542,0.088l-1.54,0.005l-1.564-0.026l-1.579-0.105L25.474,38.1
	l-1.603-0.224l-1.596-0.305l-1.607-0.352l-1.601-0.421l-1.623-0.485l-1.099-0.372l-0.083,0.093l-0.803,0.864l-0.405,0.441
	l-1.204,1.313l-0.398,0.434l-0.4,0.439l-0.806,0.858l-0.411,0.447l-0.396,0.422l-0.729,0.801l0.43,0.605l0.503,0.736l0.494,0.75
	l0.474,0.751l0.451,0.755l0.438,0.768l0.42,0.758l0.393,0.785l0.388,0.768l0.366,0.784l0.35,0.787l0.305,0.798l0.298,0.796
	l0.279,0.804l0.254,0.824l0.228,0.803l0.21,0.819l0.17,0.832l0.161,0.835l0.124,0.837l0.096,0.84l0.085,0.849l0.042,0.855
	l0.008,0.855l-0.008,0.844l-0.04,0.783l-0.043,0.82l-0.073,0.864l-0.079,0.833l-0.092,0.827l-0.104,0.828l-0.129,0.815L16.97,68.47
	l-0.146,0.809l-0.157,0.776l-0.163,0.788l-0.186,0.771l-0.182,0.77l-0.201,0.751l-0.194,0.747l-0.215,0.742l-0.207,0.731
	l-0.225,0.724l-0.216,0.726l-0.229,0.711l-0.233,0.692l-0.228,0.688l-0.241,0.689l-0.24,0.685l-0.232,0.681l-0.243,0.664
	l-0.235,0.651l-0.235,0.658l-0.227,0.648l-0.236,0.633l-0.232,0.632l-0.231,0.62l-0.209,0.585l-0.658,1.897L10.654,89.009
	L10.654,89.009z M90.199,55.191l-78.437,55.234l0.172,0.273l0.685,0.966l0.77,0.979l0.843,0.934l0.943,0.939l1.026,0.932
	l1.127,0.927l1.227,0.912l1.328,0.906l1.426,0.89l1.535,0.891l1.627,0.874l1.735,0.856l1.848,0.842l1.996,0.85l0.842,0.34
	l0.889,0.364l0.905,0.359l0.914,0.372l0.912,0.347l0.923,0.368l0.929,0.371l0.926,0.361l0.929,0.363l0.934,0.377l0.935,0.376
	l0.942,0.375l0.934,0.388l0.933,0.385l0.925,0.402l0.926,0.399l0.927,0.399l0.914,0.414l0.915,0.433l0.909,0.422l0.887,0.438
	l0.903,0.457l0.876,0.454l0.873,0.473l0.861,0.482l0.822,0.485l0.804-0.475l0.854-0.484l0.876-0.481l0.871-0.454l0.893-0.457
	l0.887-0.431l0.903-0.429l0.915-0.427l0.919-0.42l0.913-0.399l0.925-0.399l0.923-0.393l0.934-0.385l0.933-0.389l0.926-0.384
	l0.93-0.376l0.934-0.37l0.934-0.37l0.934-0.361l0.917-0.364l0.927-0.375l0.917-0.347l0.904-0.372l0.895-0.359l0.895-0.364
	l0.849-0.34l1.987-0.85l1.841-0.842l1.755-0.856l1.632-0.874l1.526-0.891l1.426-0.89l1.321-0.906l1.23-0.912l1.12-0.927l1.029-0.932
	l0.939-0.939l0.855-0.934l0.762-0.979l0.689-0.966l0.613-0.996l0.54-1.015l0.471-1.027l0.416-1.076l0.336-1.104l0.28-1.145
	l0.21-1.195l0.153-1.258l0.071-1.306l0.006-1.352l-0.077-1.424l-0.136-1.48l-0.228-1.548l-0.298-1.612l-0.384-1.666l-0.466-1.753
	l-0.548-1.802l-0.661-1.897l-0.203-0.576l-0.237-0.629l-0.226-0.632l-0.227-0.633l-0.237-0.648l-0.241-0.658l-0.232-0.659
	l-0.243-0.656l-0.23-0.681l-0.244-0.685l-0.244-0.689l-0.222-0.688l-0.238-0.692l-0.22-0.725l-0.232-0.711l-0.212-0.724
	l-0.213-0.731l-0.21-0.731l-0.195-0.758l-0.201-0.751l-0.186-0.77l-0.167-0.771l-0.172-0.788l-0.165-0.776l-0.139-0.809
	l-0.133-0.809l-0.128-0.815l-0.115-0.828l-0.093-0.827l-0.081-0.85l-0.07-0.847l-0.049-0.82l-0.037-0.783l-0.018-0.844l0.018-0.855
	l0.058-0.855l0.071-0.849l0.098-0.84l0.125-0.837l0.16-0.835L90.199,55.191L90.199,55.191z M8.995,87.404l0.658-1.947l0.217-0.596
	l0.233-0.629l0.231-0.632l0.23-0.633l0.234-0.648l0.239-0.643l0.231-0.664l0.237-0.653l0.235-0.676l0.241-0.676l0.227-0.671
	l0.236-0.688l0.225-0.678l0.212-0.698l0.218-0.697l0.224-0.712l0.212-0.719l0.191-0.72l0.2-0.735l0.187-0.731l0.183-0.75
	l0.174-0.742l0.166-0.761l0.152-0.762l0.144-0.769l0.123-0.783l0.115-0.791l0.123-0.793l0.083-0.799l0.079-0.806l0.064-0.821
	l0.05-0.795l0.024-0.751l0.011-0.784l-0.011-0.799l-0.048-0.784l-0.065-0.798l-0.097-0.792l-0.11-0.769l-0.148-0.778l-0.162-0.781
	l-0.196-0.764l-0.216-0.767l-0.238-0.768l-0.254-0.764l-0.293-0.747l-0.296-0.758l-0.32-0.744l-0.347-0.745l-0.358-0.743
	l-0.384-0.734l-0.397-0.727l-0.422-0.731L10.8,45.837l-0.449-0.728L9.883,44.4l-0.484-0.709l-0.508-0.707l-0.523-0.717l-0.261-0.34
	l0.143-0.154l0.398-0.437l0.406-0.442l0.809-0.86l0.397-0.447l0.404-0.435l0.81-0.868l0.394-0.437l0.405-0.426l1.205-1.308
	l0.404-0.434l0.8-0.88l0.405-0.43l0.395-0.438l0.253-0.272l0.855,0.334l1.542,0.518l1.529,0.474l1.533,0.398l1.531,0.337
	l1.517,0.279l1.511,0.214l1.489,0.147l1.497,0.095l1.478,0.032l1.466-0.019l1.455-0.063l1.434-0.143l1.425-0.179l1.397-0.226
	l1.39-0.285l1.377-0.311l1.36-0.386l1.338-0.402l1.324-0.45l1.307-0.485l1.287-0.526l1.276-0.548l1.264-0.593l1.231-0.619
	l1.233-0.645l1.215-0.672l0.597-0.361l0.598,0.361l1.222,0.672l1.227,0.645l1.242,0.619l1.263,0.593l1.269,0.548l1.282,0.526
	l1.311,0.485l1.324,0.45l1.336,0.402l1.359,0.386l1.378,0.311l1.385,0.285l1.397,0.226l1.428,0.179l1.447,0.143l1.45,0.063
	l1.455,0.019l1.484-0.032l1.493-0.095l1.495-0.147l1.506-0.214l1.522-0.279l1.523-0.337l1.532-0.398l1.54-0.474l1.535-0.518
	l0.857-0.334l0.646,0.71l0.405,0.43l1.207,1.313l0.406,0.432l1.201,1.302l0.394,0.437l1.216,1.302l0.397,0.447l1.209,1.302
	l0.405,0.437l0.141,0.154l-0.265,0.34l-0.514,0.717l-0.503,0.707L97.303,44.4l-0.46,0.709l-0.461,0.728l-0.426,0.718l-0.421,0.731
	l-0.398,0.727l-0.389,0.734l-0.351,0.755l-0.351,0.732l-0.32,0.744l-0.308,0.758l-0.277,0.747l-0.268,0.764l-0.229,0.768
	l-0.222,0.767l-0.183,0.764l-0.175,0.781l-0.144,0.778l-0.115,0.769l-0.096,0.792l-0.069,0.798l-0.048,0.784l-0.011,0.799
	l0.011,0.784l0.038,0.751l0.039,0.787l0.066,0.829l0.079,0.806l0.106,0.799l0.093,0.793l0.123,0.791l0.131,0.783l0.146,0.769
	l0.142,0.762l0.172,0.761l0.172,0.75l0.177,0.742l0.188,0.731l0.198,0.739l0.203,0.716l0.2,0.719l0.214,0.701l0.229,0.708
	l0.211,0.698l0.228,0.678l0.235,0.688l0.234,0.671l0.232,0.676l0.236,0.676l0.233,0.653l0.235,0.664l0.229,0.643l0.245,0.644
	l0.227,0.638l0.238,0.632l0.227,0.629l0.21,0.596l0.672,1.947l0.566,1.848l0.484,1.813l0.402,1.74l0.314,1.688l0.239,1.618
	l0.145,1.565l0.067,1.506v1.461l-0.079,1.402l-0.162,1.342l-0.23,1.303l-0.306,1.259l-0.378,1.216l-0.445,1.173l-0.514,1.151
	l-0.607,1.104l-0.661,1.097l-0.768,1.071l-0.821,1.041l-0.938,1.023l-1.011,1.021l-1.097,1.003l-1.199,0.968l-1.299,0.978
	l-1.389,0.948l-1.493,0.941l-1.599,0.921l-1.694,0.901l-1.797,0.892l-1.905,0.867l-2.033,0.868l-0.861,0.349l-0.906,0.354
	l-0.904,0.36l-0.913,0.371l-0.907,0.363l-0.924,0.365l-0.928,0.37l-0.927,0.359l-0.924,0.363l-0.925,0.379l-0.924,0.375
	l-0.926,0.366l-0.925,0.395l-0.916,0.378l-0.917,0.394l-0.913,0.377l-0.906,0.409l-0.895,0.409l-0.888,0.413l-0.879,0.422
	l-0.873,0.429l-0.855,0.438l-0.863,0.439l-0.829,0.459l-0.826,0.476l-0.816,0.469l-0.803,0.497l-0.29,0.187l-0.305-0.198
	l-0.802-0.485l-0.819-0.486l-0.824-0.458l-0.846-0.465l-0.856-0.451l-0.867-0.426l-0.868-0.434l-0.889-0.412l-0.884-0.413
	l-0.907-0.419l-0.905-0.399l-0.915-0.389l-0.917-0.382l-0.918-0.382l-0.93-0.391l-0.922-0.374l-0.93-0.367l-0.937-0.379
	l-0.924-0.363l-0.923-0.359l-0.928-0.37l-0.922-0.365l-0.915-0.363l-0.919-0.371l-0.904-0.36l-0.896-0.354l-0.868-0.349
	l-2.031-0.868l-1.898-0.867l-1.805-0.892l-1.693-0.901l-1.589-0.921l-1.5-0.941l-1.393-0.948l-1.29-0.978l-1.205-0.968l-1.098-1.003
	l-1.018-1.021l-0.917-1.023l-0.842-1.041l-0.752-1.071l-0.671-1.097L8.9,109.487l-0.533-1.151l-0.44-1.173l-0.381-1.216
	l-0.305-1.259l-0.227-1.303l-0.17-1.342l-0.068-1.402L6.766,99.18l0.071-1.506l0.152-1.565l0.233-1.618l0.316-1.688l0.396-1.74
	l0.489-1.813L8.995,87.404L8.995,87.404z"/>
<path fill-rule="evenodd" clip-rule="evenodd" fill="#FFFFFF" d="M10.024,88.396l72.655-51.123l-1.59,0.224l-1.583,0.156
	L77.93,37.75l-1.576,0.043l-1.55-0.02l-1.522-0.079l-1.532-0.138l-1.495-0.192l-1.495-0.241l-1.464-0.293l-1.448-0.348l-1.418-0.387
	l-1.403-0.419L61.639,35.2l-1.369-0.516l-1.347-0.547L57.6,33.572l-1.307-0.619l-1.284-0.641l-1.269-0.667l-0.772-0.42l-0.761,0.42
	l-1.273,0.667l-1.282,0.641l-1.311,0.619l-1.33,0.565l-1.337,0.547L44.308,35.2l-1.393,0.476l-1.396,0.419l-1.425,0.387
	l-1.451,0.348l-1.458,0.293l-1.497,0.241l-1.501,0.192l-1.524,0.138l-1.533,0.079l-1.541,0.02l-1.572-0.043l-1.573-0.096
	l-1.598-0.156l-1.593-0.224l-1.598-0.293l-1.604-0.365l-1.613-0.417l-1.614-0.489l-1.096-0.374l-0.094,0.095L14.834,36.3
	L14.43,36.74l-1.205,1.304l-0.4,0.447l-0.4,0.42l-0.804,0.875l-0.409,0.436l-0.397,0.434l-0.733,0.802l0.435,0.598l0.5,0.741
	l0.493,0.745l0.472,0.756l0.462,0.757l0.431,0.758l0.422,0.772l0.399,0.768l0.381,0.772l0.362,0.792l0.348,0.777l0.308,0.799
	l0.298,0.792l0.281,0.818l0.255,0.811l0.224,0.814l0.215,0.817l0.167,0.836l0.162,0.827l0.127,0.836l0.1,0.832l0.078,0.862
	l0.042,0.848l0.018,0.85l-0.018,0.858l-0.036,0.775l-0.042,0.827l-0.067,0.852l-0.092,0.837l-0.089,0.836l-0.121,0.826l-0.109,0.814
	l-0.142,0.807l-0.143,0.803l-0.159,0.774l-0.169,0.785l-0.174,0.787l-0.182,0.759l-0.204,0.76l-0.196,0.74l-0.209,0.752
	l-0.215,0.733l-0.219,0.723l-0.225,0.717l-0.228,0.708l-0.23,0.704l-0.231,0.691l-0.237,0.687l-0.235,0.676l-0.239,0.67
	l-0.231,0.674l-0.248,0.65l-0.225,0.656l-0.233,0.645l-0.241,0.636l-0.234,0.632l-0.227,0.629l-0.206,0.578l-0.656,1.909
	L10.024,88.396L10.024,88.396z M89.577,54.574l-78.436,55.248l0.167,0.273l0.682,0.965l0.772,0.972l0.847,0.933l0.948,0.957
	l1.025,0.924l1.124,0.931l1.226,0.908l1.328,0.913l1.419,0.886l1.538,0.886l1.632,0.867l1.742,0.859l1.849,0.849l1.995,0.848
	l0.837,0.343l0.879,0.36l0.912,0.36l0.907,0.36l0.917,0.354l0.921,0.373l0.926,0.372l0.929,0.355l0.928,0.364l0.938,0.383
	l0.941,0.38l0.924,0.371l0.94,0.386l0.937,0.382l0.921,0.406l0.927,0.387l0.922,0.418l0.917,0.403l0.917,0.438l0.914,0.426
	l0.888,0.43l0.896,0.456l0.881,0.457l0.874,0.467l0.855,0.483l0.811,0.494l0.818-0.477l0.847-0.493l0.881-0.475l0.874-0.452
	l0.894-0.451l0.893-0.439l0.894-0.426l0.916-0.426l0.911-0.416l0.918-0.408l0.928-0.396l0.92-0.393l0.939-0.396l0.931-0.371
	l0.933-0.386l0.928-0.38l0.931-0.371l0.929-0.376l0.936-0.355l0.928-0.372l0.915-0.373l0.914-0.354l0.907-0.36l0.899-0.36
	l0.892-0.36l0.85-0.343l1.983-0.848l1.851-0.849l1.742-0.859l1.64-0.867l1.516-0.886l1.433-0.886l1.328-0.913l1.228-0.908
	l1.121-0.931l1.032-0.924l0.936-0.957l0.854-0.933l0.772-0.972l0.68-0.965l0.612-0.989l0.534-1.019l0.474-1.036l0.417-1.063
	l0.345-1.114l0.271-1.148l0.211-1.188l0.149-1.255l0.083-1.3v-1.364L97.657,97.2l-0.141-1.486l-0.219-1.542l-0.311-1.608
	l-0.375-1.673l-0.46-1.738l-0.559-1.806l-0.652-1.909l-0.216-0.578l-0.229-0.629l-0.227-0.636l-0.23-0.633l-0.233-0.645l-0.24-0.656
	l-0.242-0.652l-0.237-0.672l-0.231-0.67l-0.238-0.676l-0.238-0.687l-0.229-0.691l-0.232-0.704l-0.225-0.708l-0.227-0.717
	l-0.22-0.723l-0.215-0.733l-0.208-0.736l-0.197-0.756l-0.204-0.76l-0.182-0.759l-0.174-0.787l-0.163-0.785l-0.162-0.774
	l-0.142-0.803l-0.137-0.807l-0.126-0.814l-0.11-0.826l-0.098-0.836l-0.083-0.837l-0.067-0.852l-0.048-0.827l-0.039-0.775
	l-0.008-0.858l0.018-0.85l0.048-0.848l0.071-0.862l0.099-0.832l0.128-0.836l0.162-0.827L89.577,54.574L89.577,54.574z M8.367,86.802
	l0.668-1.943l0.21-0.597l0.23-0.633L9.709,83l0.23-0.638l0.242-0.654l0.238-0.638l0.235-0.653l0.231-0.675l0.236-0.668l0.23-0.667
	l0.238-0.669l0.225-0.691l0.225-0.69l0.224-0.692l0.213-0.695l0.226-0.726l0.206-0.709l0.204-0.724l0.188-0.719l0.188-0.74
	l0.188-0.747l0.174-0.753l0.154-0.747l0.161-0.771l0.142-0.77l0.123-0.772l0.121-0.796l0.11-0.792l0.088-0.801l0.079-0.813
	l0.062-0.803l0.053-0.815l0.032-0.745l0.007-0.788l-0.007-0.787l-0.044-0.801l-0.073-0.779l-0.093-0.783l-0.116-0.781l-0.148-0.784
	l-0.169-0.778l-0.194-0.767l-0.21-0.77l-0.241-0.77l-0.25-0.756l-0.289-0.757l-0.302-0.749l-0.33-0.741l-0.343-0.744l-0.361-0.739
	l-0.381-0.745l-0.395-0.73l-0.425-0.724l-0.433-0.726l-0.455-0.723l-0.473-0.71l-0.479-0.707l-0.511-0.72l-0.52-0.711L7.48,41.324
	l0.146-0.159l0.395-0.437l0.411-0.439l0.802-0.865l0.4-0.439l0.41-0.432l0.806-0.87l0.392-0.434l0.402-0.445l1.208-1.293
	l0.398-0.445l0.809-0.859l0.399-0.446l0.409-0.428l0.243-0.276l0.854,0.34l1.543,0.522l1.526,0.466l1.534,0.395l1.534,0.336
	l1.517,0.277l1.51,0.208l1.486,0.149l1.502,0.101l1.473,0.039l1.471-0.018l1.458-0.074l1.431-0.124l1.421-0.188l1.409-0.224
	l1.384-0.286l1.381-0.326l1.348-0.378l1.35-0.406l1.313-0.441l1.305-0.492l1.295-0.519l1.272-0.543l1.261-0.608l1.235-0.611
	l1.23-0.651l1.215-0.668l0.597-0.347l0.606,0.347l1.214,0.668l1.224,0.651l1.244,0.611l1.268,0.608l1.273,0.543l1.287,0.519
	l1.3,0.492l1.329,0.441l1.329,0.406l1.37,0.378l1.366,0.326l1.389,0.286l1.411,0.224l1.42,0.188l1.44,0.124l1.45,0.074l1.468,0.018
	l1.479-0.039l1.486-0.101l1.498-0.149l1.506-0.208l1.523-0.277l1.529-0.336l1.521-0.395l1.543-0.466l1.535-0.522l0.871-0.34
	l0.64,0.704l0.399,0.446l1.205,1.304l0.401,0.43l1.206,1.308l0.402,0.432l1.215,1.303l0.396,0.439l1.205,1.304l0.404,0.437
	l0.146,0.159L98.2,41.657l-0.519,0.711l-0.498,0.72l-0.493,0.707l-0.473,0.71l-0.455,0.723l-0.429,0.726l-0.429,0.724l-0.394,0.73
	l-0.387,0.745l-0.355,0.739l-0.352,0.744l-0.318,0.736l-0.305,0.753l-0.277,0.757l-0.259,0.756l-0.246,0.77l-0.208,0.77
	l-0.192,0.767l-0.171,0.778l-0.148,0.784l-0.113,0.781l-0.102,0.783l-0.065,0.779L90.97,59.65l-0.01,0.787l0.01,0.788l0.042,0.745
	l0.039,0.796l0.065,0.823l0.079,0.813l0.09,0.801l0.108,0.792l0.111,0.796l0.144,0.772l0.134,0.77l0.158,0.771l0.162,0.747
	l0.175,0.762l0.18,0.738l0.186,0.74l0.19,0.719l0.205,0.724l0.2,0.709l0.223,0.716l0.221,0.705l0.221,0.692l0.221,0.683l0.232,0.698
	l0.232,0.669l0.23,0.667l0.243,0.673l0.241,0.669l0.232,0.653l0.228,0.638l0.243,0.654L96.224,83l0.244,0.629l0.222,0.633
	l0.21,0.597l0.675,1.943l0.566,1.852l0.493,1.806l0.39,1.743l0.32,1.674l0.234,1.629l0.147,1.557l0.076,1.521l-0.005,1.449
	l-0.082,1.399l-0.166,1.352l-0.223,1.313l-0.302,1.248l-0.378,1.214l-0.452,1.175l-0.517,1.141l-0.597,1.103l-0.669,1.105
	l-0.764,1.056l-0.828,1.067l-0.931,1.018l-1.005,1.021l-1.109,0.99l-1.195,0.982l-1.294,0.967l-1.387,0.961l-1.498,0.931
	l-1.597,0.918l-1.689,0.907l-1.807,0.891l-1.905,0.866l-2.032,0.864l-0.861,0.352l-0.891,0.362l-0.918,0.36l-0.907,0.358
	l-0.911,0.368l-0.932,0.369l-0.913,0.364l-0.922,0.355l-0.938,0.376l-0.928,0.369l-0.921,0.379l-0.928,0.374l-0.923,0.379
	l-0.913,0.386l-0.917,0.39l-0.917,0.396l-0.896,0.395l-0.894,0.407l-0.895,0.422l-0.878,0.413l-0.87,0.436l-0.866,0.437
	l-0.857,0.442l-0.83,0.447l-0.831,0.473l-0.811,0.48l-0.805,0.496l-0.301,0.185l-0.299-0.193l-0.79-0.487l-0.817-0.489l-0.834-0.464
	l-0.844-0.461l-0.848-0.441l-0.875-0.432l-0.875-0.428l-0.874-0.422l-0.897-0.413l-0.903-0.407l-0.902-0.395l-0.917-0.396
	l-0.917-0.39l-0.924-0.386l-0.932-0.379l-0.923-0.388l-0.927-0.365l-0.922-0.369l-0.935-0.376l-0.93-0.355l-0.923-0.364
	l-0.923-0.369l-0.917-0.368l-0.905-0.358l-0.92-0.36l-0.885-0.362l-0.867-0.352l-2.039-0.864l-1.897-0.866l-1.795-0.891l-1.71-0.907
	l-1.587-0.918l-1.497-0.931l-1.388-0.961l-1.299-0.967l-1.194-0.982l-1.107-0.99l-1.007-1.021l-0.933-1.018l-0.833-1.067
	l-0.745-1.056l-0.679-1.105l-0.599-1.103l-0.512-1.141l-0.455-1.175l-0.382-1.214l-0.296-1.248l-0.236-1.313l-0.156-1.352
	l-0.078-1.399l-0.008-1.449l0.07-1.521l0.152-1.557L6.6,93.877l0.313-1.674l0.398-1.743l0.493-1.806L8.367,86.802L8.367,86.802z"/>
<path fill="#22201F" d="M84.769,55.356l-1.706-2.048l2.237-1.562l1.7,2.048L84.769,55.356L84.769,55.356z M77.298,54.524l2.83-0.927
	c0.618,1.415,0.76,2.692,0.42,3.828c-0.351,1.12-1.147,2.142-2.401,3.016c-1.549,1.076-3.228,1.485-5.031,1.21
	c-1.802-0.275-3.399-1.272-4.798-2.935c-1.477-1.786-2.122-3.525-1.927-5.217c0.171-1.689,1.088-3.094,2.722-4.25
	c1.441-0.981,2.902-1.413,4.437-1.25c0.912,0.083,1.859,0.46,2.836,1.134l-1.914,2.128c-0.594-0.451-1.242-0.691-1.95-0.698
	c-0.706-0.026-1.36,0.191-2,0.629c-0.864,0.602-1.326,1.385-1.394,2.329c-0.065,0.93,0.427,2.051,1.488,3.33
	c1.12,1.36,2.189,2.129,3.192,2.332c1.014,0.207,1.94,0.016,2.79-0.579c0.618-0.438,0.999-0.993,1.153-1.674
	C77.897,56.249,77.744,55.444,77.298,54.524L77.298,54.524z M68.491,66.792l-1.7-2.066l2.242-1.56l1.693,2.06L68.491,66.792
	L68.491,66.792z M60.384,72.478l-8.878-10.719l8.005-5.591l1.503,1.816l-5.645,3.941l2.094,2.539l4.875-3.401l1.501,1.815
	l-4.882,3.399l3.792,4.551L60.384,72.478L60.384,72.478z M48.301,74.76l2.826-0.93c0.616,1.414,0.751,2.688,0.416,3.817
	c-0.34,1.145-1.14,2.151-2.401,3.016c-1.543,1.089-3.219,1.493-5.019,1.215c-1.811-0.273-3.404-1.254-4.807-2.938
	c-1.479-1.785-2.11-3.524-1.93-5.212c0.181-1.681,1.098-3.096,2.726-4.245c1.436-0.989,2.901-1.413,4.441-1.258
	c0.91,0.089,1.85,0.47,2.835,1.134l-1.918,2.137c-0.594-0.46-1.244-0.699-1.949-0.708c-0.7-0.022-1.376,0.191-2.001,0.634
	c-0.857,0.597-1.327,1.382-1.396,2.318c-0.062,0.95,0.429,2.065,1.488,3.349c1.133,1.354,2.181,2.13,3.195,2.332
	c1.013,0.209,1.936,0.007,2.785-0.578c0.625-0.443,1.016-0.998,1.171-1.688C48.902,76.475,48.745,75.675,48.301,74.76L48.301,74.76z
	 M30.906,85.925l2.374,2.867l2.173-1.524c0.851-0.586,1.373-0.987,1.562-1.194c0.298-0.291,0.467-0.638,0.504-1.024
	c0.029-0.386-0.104-0.76-0.425-1.146c-0.264-0.317-0.574-0.53-0.934-0.624c-0.359-0.117-0.74-0.108-1.142,0.009
	c-0.401,0.13-1.14,0.557-2.208,1.306L30.906,85.925L30.906,85.925z M27.373,81.662l2.052,2.484l1.553-1.078
	c0.903-0.653,1.467-1.053,1.665-1.233c0.375-0.327,0.58-0.681,0.637-1.042c0.063-0.376-0.057-0.744-0.347-1.083
	c-0.28-0.333-0.587-0.527-0.965-0.61c-0.367-0.053-0.762,0.015-1.199,0.25c-0.253,0.137-0.928,0.599-2.043,1.366L27.373,81.662
	L27.373,81.662z M23.538,81.528l4.662-3.261c0.929-0.646,1.644-1.09,2.161-1.332c0.512-0.248,1.039-0.375,1.583-0.411
	c0.545-0.031,1.088,0.065,1.635,0.264c0.551,0.209,1.009,0.55,1.403,1.007c0.41,0.507,0.646,1.066,0.697,1.691
	c0.047,0.631-0.087,1.225-0.418,1.78c0.863-0.298,1.684-0.374,2.441-0.174c0.762,0.189,1.405,0.596,1.912,1.21
	c0.405,0.491,0.671,1.047,0.817,1.686c0.124,0.626,0.091,1.239-0.101,1.799c-0.208,0.58-0.585,1.12-1.167,1.634
	c-0.353,0.312-1.282,0.991-2.774,2.047L32.41,92.25L23.538,81.528L23.538,81.528z M23.266,91.878l-4.889-2.859l1.71,5.08
	L23.266,91.878L23.266,91.878z M31.121,93.083l-2.561,1.782l-3.032-1.711l-4.678,3.258l1.068,3.1l-2.505,1.745l-4.327-13.893
	l2.485-1.737L31.121,93.083L31.121,93.083z"/>
</svg>
